<?xml version="1.0" encoding="utf-8"?>
<!-- Generator: Adobe Illustrator 26.0.0, SVG Export Plug-In . SVG Version: 6.00 Build 0)  -->
<svg version="1.1" id="Calque_1" xmlns="http://www.w3.org/2000/svg" xmlns:xlink="http://www.w3.org/1999/xlink" x="0px" y="0px"
	 viewBox="0 0 841.89 595.28" style="enable-background:new 0 0 841.89 595.28;" xml:space="preserve">
<style type="text/css">
	.st0{fill:#888A8D;}
	.st1{fill:#BD0E3A;}
	.st2{fill:#FFFFFF;}
</style>
<g>
	<path class="st0" d="M487.05,493.93c-0.18,21.24-11.97,32.06-31.85,31.89c-21.06-0.18-33.25-9.99-33.07-32.44l0.44-53.39
		l10.53,0.09l-0.45,53.39c-0.11,14.56,8,23.12,22.04,23.25c13.46,0.11,21.13-7.71,21.25-22.87l0.44-53.4l11.11,0.1
		c0,0-0.14,16.27-0.22,26.69C487.18,477.67,487.05,493.93,487.05,493.93L487.05,493.93z M487.05,493.93"/>
	<path class="st1" d="M503.85,440.68l11.11,0.09l27.47,73.65l28.68-73.17l11.11,0.1l-0.68,83.71l-7.6-0.06l0.58-72.2l-28.08,71.95
		l-7.6-0.07l-26.9-72.43l-0.59,72.2l-7.6-0.06l0.68-83.72H503.85z M503.85,440.68"/>
	<path class="st1" d="M631.94,439.95c25.15,0.22,37.86,20.95,37.67,44.01c-0.18,23.05-13.23,43.57-38.38,43.35
		c-25.15-0.21-37.86-20.95-37.66-44.01C593.75,460.25,606.79,439.74,631.94,439.95L631.94,439.95z M631.29,520.64
		c21.06,0.18,30.57-18.55,30.72-36.74c0.15-18.2-8.47-37.08-30.12-37.27c-21.64-0.19-30.57,18.54-30.72,36.74
		C601.02,501.57,609.64,520.45,631.29,520.64L631.29,520.64z M631.29,520.64"/>
	<path class="st1" d="M681.62,442.19l8.78,0.08l46.22,71.38l0.58-70.98l7.6,0.07l-0.68,83.71l-8.78-0.07l-46.22-71.39l-0.57,70.98
		l-7.6-0.06L681.62,442.19z M681.62,442.19"/>
	<path class="st1" d="M764.22,498.71c-0.72,16.98,11.52,22.54,26.14,22.67c8.19,0.07,21.69-4.67,21.78-16.8
		c0.08-9.71-9.25-13.42-16.26-15.31l-18.09-5.01c-9.34-2.51-18.08-7.43-17.98-20.17c0.07-8.5,5.46-23.62,28.28-23.42
		c15.8,0.13,29.76,9.36,29.62,26.35l-7.6-0.07c-0.48-12.74-10.37-19.51-22.07-19.61c-10.53-0.09-20.52,4.08-20.62,16.21
		c-0.06,7.89,5.76,10.97,12.19,12.84l19.84,5.03c11.68,3.13,21,8.68,20.89,22.02c-0.05,5.46-2.53,23.65-31.2,23.4
		c-19.3-0.17-33.27-9.39-31.94-29.4l7.03,0.06L764.22,498.71z M764.22,498.71"/>
	<path class="st1" d="M421.75,537.68l64.92,0.55l-0.05,7.27l-64.92-0.55L421.75,537.68z M421.75,537.68"/>
	<rect x="28" y="60.58" class="st0" width="45.66" height="350.87"/>
	<path class="st0" d="M203.24,373.62h164.07v37.84H157.35V60.58h45.89V373.62z M203.24,373.62"/>
	<rect x="423.22" y="60.58" class="st1" width="45.89" height="350.87"/>
	<path class="st1" d="M749.69,319.88H603.91l-32.74,91.57h-47.32L656.72,60.58h40.15L830,411.46h-47.08L749.69,319.88z
		 M617.76,281.8h118.31L676.8,117.69L617.76,281.8z M617.76,281.8"/>
	<rect x="28" y="436.52" class="st1" width="339.31" height="50.12"/>
	<rect x="41.5" y="450.1" class="st2" width="2.53" height="19.19"/>
	<path class="st2" d="M50.59,455.03l0.07,1.79c1.1-1.36,2.52-2.05,4.28-2.05c3.01,0,4.53,1.7,4.56,5.1v9.42h-2.44v-9.44
		c-0.01-1.02-0.24-1.79-0.71-2.28c-0.45-0.49-1.17-0.73-2.15-0.73c-0.78,0-1.49,0.21-2.08,0.63c-0.6,0.42-1.06,0.97-1.4,1.66v10.16
		h-2.44v-14.26H50.59z M50.59,455.03"/>
	<path class="st2" d="M64.38,469.29v-12.37h-2.26v-1.89h2.26v-1.47c0-1.53,0.4-2.71,1.23-3.54c0.81-0.83,1.97-1.25,3.47-1.25
		c0.56,0,1.11,0.08,1.67,0.23l-0.13,1.98c-0.41-0.08-0.85-0.12-1.32-0.12c-0.79,0-1.4,0.23-1.83,0.69
		c-0.43,0.46-0.65,1.12-0.65,1.98v1.51h3.04v1.89h-3.04v12.37H64.38z M64.38,469.29"/>
	<path class="st2" d="M71.91,462.03c0-1.4,0.27-2.65,0.82-3.78c0.55-1.12,1.32-1.97,2.29-2.58c0.98-0.6,2.11-0.9,3.36-0.9
		c1.94,0,3.5,0.66,4.7,2.01c1.2,1.34,1.81,3.13,1.81,5.37v0.17c0,1.39-0.27,2.63-0.8,3.73c-0.53,1.11-1.29,1.96-2.28,2.57
		c-0.98,0.62-2.12,0.93-3.41,0.93c-1.93,0-3.49-0.67-4.7-2.02c-1.2-1.33-1.8-3.12-1.8-5.33V462.03z M74.36,462.32
		c0,1.58,0.37,2.85,1.09,3.81c0.74,0.95,1.73,1.43,2.95,1.43c1.25,0,2.23-0.48,2.95-1.44c0.73-0.97,1.09-2.34,1.09-4.09
		c0-1.57-0.37-2.83-1.12-3.8c-0.74-0.97-1.73-1.47-2.95-1.47c-1.21,0-2.18,0.48-2.91,1.44C74.73,459.17,74.36,460.54,74.36,462.32
		L74.36,462.32z M74.36,462.32"/>
	<path class="st2" d="M94.84,457.22c-0.37-0.06-0.77-0.1-1.2-0.1c-1.61,0-2.69,0.68-3.26,2.05v10.12h-2.43v-14.26h2.37l0.04,1.65
		c0.79-1.27,1.93-1.91,3.39-1.91c0.48,0,0.84,0.06,1.08,0.18V457.22z M94.84,457.22"/>
	<path class="st2" d="M99.39,455.03l0.06,1.58c1.05-1.22,2.46-1.84,4.24-1.84c1.99,0,3.35,0.76,4.07,2.29
		c0.48-0.68,1.1-1.23,1.85-1.66c0.76-0.42,1.67-0.63,2.7-0.63c3.13,0,4.72,1.66,4.77,4.96v9.56h-2.44v-9.41
		c0-1.03-0.23-1.78-0.69-2.28c-0.47-0.51-1.25-0.76-2.35-0.76c-0.9,0-1.66,0.27-2.25,0.81c-0.6,0.53-0.95,1.26-1.05,2.18v9.46h-2.45
		v-9.35c0-2.07-1.01-3.1-3.04-3.1c-1.6,0-2.69,0.67-3.29,2.04v10.41h-2.44v-14.26H99.39z M99.39,455.03"/>
	<path class="st2" d="M129.57,469.29c-0.14-0.28-0.25-0.78-0.34-1.51c-1.13,1.18-2.48,1.77-4.06,1.77c-1.41,0-2.56-0.39-3.47-1.18
		c-0.89-0.79-1.34-1.81-1.34-3.03c0-1.49,0.56-2.63,1.69-3.45c1.13-0.82,2.72-1.23,4.77-1.23h2.37v-1.12c0-0.85-0.25-1.54-0.76-2.04
		c-0.51-0.5-1.25-0.76-2.25-0.76c-0.87,0-1.6,0.22-2.19,0.66c-0.59,0.44-0.88,0.97-0.88,1.6h-2.45c0-0.71,0.25-1.4,0.75-2.06
		c0.5-0.67,1.2-1.19,2.05-1.59c0.87-0.38,1.83-0.57,2.86-0.57c1.65,0,2.93,0.41,3.87,1.23c0.93,0.81,1.42,1.95,1.44,3.38v6.57
		c0,1.31,0.17,2.35,0.5,3.12v0.21H129.57z M125.52,467.43c0.77,0,1.5-0.2,2.18-0.59c0.68-0.4,1.19-0.92,1.49-1.55v-2.92h-1.91
		c-2.98,0-4.48,0.87-4.48,2.62c0,0.76,0.25,1.36,0.76,1.8C124.07,467.21,124.73,467.43,125.52,467.43L125.52,467.43z M125.52,467.43
		"/>
	<path class="st2" d="M138.75,451.58v3.45h2.66v1.89h-2.66v8.83c0,0.57,0.12,1.01,0.36,1.3c0.23,0.28,0.64,0.42,1.2,0.42
		c0.28,0,0.67-0.05,1.16-0.16v1.98c-0.64,0.17-1.26,0.26-1.87,0.26c-1.1,0-1.92-0.33-2.47-0.98c-0.55-0.66-0.83-1.6-0.83-2.81v-8.83
		h-2.59v-1.89h2.59v-3.45H138.75z M138.75,451.58"/>
	<path class="st2" d="M146.93,469.29h-2.44v-14.26h2.44V469.29z M144.28,451.25c0-0.39,0.12-0.73,0.36-1c0.24-0.27,0.6-0.4,1.08-0.4
		c0.47,0,0.83,0.13,1.07,0.4c0.25,0.27,0.37,0.61,0.37,1c0,0.4-0.12,0.72-0.37,0.99c-0.24,0.26-0.6,0.39-1.07,0.39
		c-0.48,0-0.84-0.13-1.08-0.39C144.41,451.97,144.28,451.65,144.28,451.25L144.28,451.25z M144.28,451.25"/>
	<path class="st2" d="M150.25,462.04c0-2.24,0.51-4.01,1.53-5.31c1.04-1.31,2.41-1.96,4.14-1.96c1.69,0,3.02,0.56,3.99,1.7
		l0.11-1.44h2.24v19.74h-2.44v-6.8c-0.98,1.05-2.29,1.58-3.93,1.58c-1.73,0-3.1-0.66-4.13-2c-1.01-1.34-1.52-3.12-1.52-5.34V462.04z
		 M152.69,462.32c0,1.63,0.34,2.91,1.02,3.85c0.69,0.93,1.63,1.4,2.79,1.4c1.46,0,2.56-0.64,3.32-1.93v-6.98
		c-0.77-1.25-1.87-1.89-3.29-1.89c-1.17,0-2.12,0.47-2.81,1.42C153.03,459.11,152.69,460.5,152.69,462.32L152.69,462.32z
		 M152.69,462.32"/>
	<path class="st2" d="M174.98,467.89c-0.95,1.12-2.34,1.67-4.18,1.67c-1.52,0-2.68-0.43-3.48-1.32c-0.79-0.88-1.2-2.2-1.21-3.93
		v-9.28h2.44v9.21c0,2.17,0.88,3.24,2.64,3.24c1.86,0,3.09-0.69,3.71-2.08v-10.37h2.44v14.26h-2.32L174.98,467.89z M174.98,467.89"
		/>
	<path class="st2" d="M186.99,469.55c-1.94,0-3.51-0.64-4.72-1.9c-1.22-1.27-1.82-2.97-1.82-5.1v-0.44c0-1.42,0.27-2.68,0.8-3.79
		c0.54-1.11,1.31-1.99,2.27-2.61c0.97-0.63,2.03-0.94,3.16-0.94c1.85,0,3.3,0.61,4.32,1.83c1.03,1.23,1.55,2.97,1.55,5.24v1.01
		h-9.66c0.03,1.41,0.44,2.55,1.22,3.42c0.79,0.85,1.79,1.29,3,1.29c0.86,0,1.6-0.18,2.19-0.52c0.6-0.35,1.12-0.82,1.57-1.41
		l1.49,1.16C191.17,468.64,189.38,469.55,186.99,469.55L186.99,469.55z M186.69,456.77c-0.98,0-1.81,0.36-2.48,1.08
		c-0.66,0.71-1.08,1.71-1.24,3h7.14v-0.18c-0.07-1.24-0.4-2.2-1-2.88C188.52,457.11,187.7,456.77,186.69,456.77L186.69,456.77z
		 M186.69,456.77"/>
	<path class="st2" d="M195.3,473.12l-1.39-0.95c0.83-1.15,1.25-2.34,1.3-3.56v-2.2h2.39v1.91c0,0.88-0.22,1.78-0.66,2.66
		C196.51,471.86,195.97,472.57,195.3,473.12L195.3,473.12z M195.3,473.12"/>
	<path class="st2" d="M210.31,467.22h9.09v2.07h-11.63V450.1h2.54V467.22z M210.31,467.22"/>
	<path class="st2" d="M221.25,462.03c0-1.4,0.28-2.65,0.82-3.78c0.55-1.12,1.32-1.97,2.29-2.58c0.98-0.6,2.11-0.9,3.36-0.9
		c1.94,0,3.5,0.66,4.7,2.01c1.21,1.34,1.81,3.13,1.81,5.37v0.17c0,1.39-0.26,2.63-0.8,3.73c-0.52,1.11-1.29,1.96-2.28,2.57
		c-0.98,0.62-2.12,0.93-3.39,0.93c-1.94,0-3.5-0.67-4.71-2.02c-1.2-1.33-1.8-3.12-1.8-5.33V462.03z M223.71,462.32
		c0,1.58,0.36,2.85,1.09,3.81c0.74,0.95,1.72,1.43,2.95,1.43c1.23,0,2.22-0.48,2.95-1.44c0.72-0.97,1.1-2.34,1.1-4.09
		c0-1.57-0.38-2.83-1.12-3.8c-0.74-0.97-1.72-1.47-2.95-1.47c-1.21,0-2.18,0.48-2.91,1.44
		C224.07,459.17,223.71,460.54,223.71,462.32L223.71,462.32z M223.71,462.32"/>
	<path class="st2" d="M236.71,462.04c0-2.22,0.51-3.99,1.55-5.3c1.02-1.32,2.39-1.97,4.09-1.97c1.74,0,3.09,0.61,4.07,1.84
		l0.12-1.58h2.23v13.92c0,1.85-0.55,3.3-1.65,4.36c-1.1,1.07-2.56,1.6-4.41,1.6c-1.02,0-2.03-0.22-3.01-0.66
		c-0.98-0.43-1.74-1.04-2.26-1.8l1.26-1.47c1.04,1.3,2.33,1.94,3.84,1.94c1.19,0,2.11-0.33,2.77-1c0.66-0.66,1.01-1.61,1.01-2.82
		v-1.23c-0.98,1.13-2.31,1.69-4,1.69c-1.67,0-3.02-0.67-4.06-2.02C237.23,466.2,236.71,464.36,236.71,462.04L236.71,462.04z
		 M239.16,462.32c0,1.61,0.33,2.87,0.99,3.8c0.65,0.91,1.58,1.36,2.76,1.36c1.54,0,2.67-0.69,3.4-2.09v-6.52
		c-0.75-1.36-1.87-2.04-3.36-2.04c-1.19,0-2.12,0.46-2.78,1.39C239.49,459.14,239.16,460.51,239.16,462.32L239.16,462.32z
		 M239.16,462.32"/>
	<path class="st2" d="M255.1,469.29h-2.44v-14.26h2.44V469.29z M252.47,451.25c0-0.39,0.11-0.73,0.35-1c0.24-0.27,0.6-0.4,1.08-0.4
		c0.47,0,0.83,0.13,1.07,0.4c0.25,0.27,0.37,0.61,0.37,1c0,0.4-0.12,0.72-0.37,0.99c-0.24,0.26-0.6,0.39-1.07,0.39
		c-0.48,0-0.84-0.13-1.08-0.39C252.58,451.97,252.47,451.65,252.47,451.25L252.47,451.25z M252.47,451.25"/>
	<path class="st2" d="M264.73,467.56c0.87,0,1.63-0.26,2.29-0.79c0.64-0.52,1.01-1.19,1.07-1.98h2.31c-0.04,0.82-0.33,1.6-0.84,2.34
		c-0.52,0.73-1.22,1.33-2.09,1.77c-0.85,0.43-1.77,0.65-2.74,0.65c-1.94,0-3.49-0.64-4.64-1.94c-1.13-1.3-1.71-3.07-1.71-5.32v-0.41
		c0-1.39,0.25-2.62,0.76-3.69c0.51-1.08,1.23-1.93,2.19-2.52c0.96-0.6,2.09-0.89,3.39-0.89c1.6,0,2.93,0.47,3.99,1.43
		c1.05,0.95,1.62,2.2,1.7,3.72h-2.31c-0.07-0.92-0.42-1.68-1.05-2.27c-0.62-0.59-1.4-0.89-2.32-0.89c-1.24,0-2.2,0.45-2.88,1.34
		c-0.68,0.88-1.02,2.18-1.02,3.87v0.45c0,1.65,0.33,2.91,1.02,3.8C262.51,467.12,263.47,467.56,264.73,467.56L264.73,467.56z
		 M264.73,467.56"/>
	<path class="st2" d="M275.79,469.29h-2.44v-14.26h2.44V469.29z M273.15,451.25c0-0.39,0.12-0.73,0.36-1c0.24-0.27,0.6-0.4,1.07-0.4
		c0.47,0,0.83,0.13,1.08,0.4c0.24,0.27,0.37,0.61,0.37,1c0,0.4-0.13,0.72-0.37,0.99c-0.25,0.26-0.61,0.39-1.08,0.39
		c-0.47,0-0.84-0.13-1.07-0.39C273.27,451.97,273.15,451.65,273.15,451.25L273.15,451.25z M273.15,451.25"/>
	<path class="st2" d="M285.62,469.55c-1.94,0-3.51-0.64-4.72-1.9c-1.22-1.27-1.82-2.97-1.82-5.1v-0.44c0-1.42,0.26-2.68,0.8-3.79
		c0.54-1.11,1.3-1.99,2.27-2.61c0.97-0.63,2.03-0.94,3.16-0.94c1.85,0,3.3,0.61,4.32,1.83c1.03,1.23,1.55,2.97,1.55,5.24v1.01h-9.66
		c0.03,1.41,0.44,2.55,1.22,3.42c0.78,0.85,1.79,1.29,3,1.29c0.86,0,1.59-0.18,2.19-0.52c0.59-0.35,1.12-0.82,1.57-1.41l1.49,1.16
		C289.8,468.64,288.01,469.55,285.62,469.55L285.62,469.55z M285.32,456.77c-0.98,0-1.82,0.36-2.48,1.08
		c-0.67,0.71-1.08,1.71-1.25,3h7.15v-0.18c-0.07-1.24-0.41-2.2-1.01-2.88C287.15,457.11,286.34,456.77,285.32,456.77L285.32,456.77z
		 M285.32,456.77"/>
	<rect x="294.23" y="449.05" class="st2" width="2.44" height="20.24"/>
	<path class="st2" d="M306.76,464.14c0-0.92,0.25-1.77,0.76-2.54c0.52-0.77,1.51-1.68,2.95-2.71c-0.85-1.03-1.43-1.87-1.71-2.5
		c-0.29-0.63-0.44-1.25-0.44-1.89c0-1.45,0.43-2.6,1.3-3.42c0.86-0.82,2.03-1.23,3.5-1.23c1.32,0,2.41,0.38,3.26,1.15
		c0.86,0.76,1.3,1.74,1.3,2.9c0,0.77-0.2,1.49-0.59,2.15c-0.38,0.65-1.06,1.33-2.04,2.06l-1.42,1.04l4.27,5.1
		c0.6-1.14,0.9-2.41,0.9-3.8h2.2c0,2.24-0.54,4.09-1.63,5.57l2.74,3.28h-2.92l-1.28-1.52c-0.65,0.58-1.42,1.03-2.3,1.34
		c-0.86,0.29-1.76,0.44-2.66,0.44c-1.87,0-3.37-0.49-4.51-1.49C307.32,467.07,306.76,465.77,306.76,464.14L306.76,464.14z
		 M312.96,467.56c1.3,0,2.47-0.49,3.54-1.48l-4.68-5.6l-0.43,0.32c-1.47,1.07-2.2,2.19-2.2,3.33c0,1.03,0.33,1.87,1,2.49
		C310.88,467.25,311.8,467.56,312.96,467.56L312.96,467.56z M310.77,454.42c0,0.85,0.52,1.9,1.56,3.17l1.56-1.1
		c0.59-0.42,1-0.82,1.22-1.2c0.22-0.38,0.33-0.85,0.33-1.4c0-0.59-0.22-1.07-0.66-1.47c-0.44-0.39-0.99-0.59-1.66-0.59
		c-0.72,0-1.3,0.25-1.72,0.74C310.98,453.07,310.77,453.68,310.77,454.42L310.77,454.42z M310.77,454.42"/>
	<rect x="331.33" y="450.1" class="st2" width="2.52" height="19.19"/>
	<path class="st2" d="M349.32,464.28h-8.03l-1.81,5.01h-2.61l7.33-19.19h2.21l7.34,19.19h-2.59L349.32,464.28z M342.05,462.2h6.53
		l-3.27-8.98L342.05,462.2z M342.05,462.2"/>
	<rect x="39.57" y="473.15" class="st2" width="5.78" height="1.93"/>
	<rect x="205.37" y="473.15" class="st2" width="15.42" height="1.93"/>
	<rect x="330.68" y="473.15" class="st2" width="23.13" height="1.93"/>
</g>
</svg>
